<svg width="541" height="511" viewBox="0 0 541 511" fill="none" xmlns="http://www.w3.org/2000/svg">
<g clip-path="url(#clip0_767_96)">
<path d="M57.9347 190.396H482.174C513.3 190.396 538.626 215.721 538.626 246.848V412.053C538.626 443.18 513.301 468.489 482.174 468.489H57.9347C26.808 468.489 1.5 443.18 1.5 412.053V246.848C1.5 215.721 26.8082 190.396 57.9347 190.396Z" stroke="white"/>
<path d="M482.174 189.896H57.9347C26.5318 189.896 1 215.445 1 246.848V412.053C1 443.456 26.5318 468.989 57.9347 468.989H482.174C513.576 468.989 539.126 443.456 539.126 412.053V246.848C539.126 215.445 513.576 189.896 482.174 189.896Z" stroke="#5A5A5A" stroke-width="2" stroke-miterlimit="10"/>
<path d="M42.9473 319.411H480.289" stroke="#565656" stroke-width="2" stroke-miterlimit="10"/>
<path d="M42.9473 352.246H480.289" stroke="#565656" stroke-width="2" stroke-miterlimit="10"/>
<path d="M42.9473 385.082H480.289" stroke="#565656" stroke-width="2" stroke-miterlimit="10"/>
<path d="M42.9473 417.917H342.114" stroke="#565656" stroke-width="2" stroke-miterlimit="10"/>
<path d="M61.189 279.279C75.2936 279.279 86.7276 267.845 86.7276 253.741C86.7276 239.636 75.2936 228.202 61.189 228.202C47.0844 228.202 35.6504 239.636 35.6504 253.741C35.6504 267.845 47.0844 279.279 61.189 279.279Z" fill="#009BBE"/>
<path d="M136.453 410.345L198.895 304.788L157.882 297.952L103.784 419.018L95.6703 435.266C89.5187 437.215 83.7818 442.049 80.3259 448.97C74.2789 461.08 77.5012 474.953 87.523 479.958C97.5449 484.962 110.571 479.202 116.618 467.092C120.074 460.171 120.491 452.681 118.353 446.593L136.453 410.345Z" fill="#E09093"/>
<path d="M398.048 410.345L335.605 304.788L376.619 297.952L430.717 419.018L438.831 435.266C444.982 437.215 450.719 442.049 454.175 448.97C460.222 461.08 457 474.953 446.978 479.958C436.956 484.962 423.93 479.202 417.883 467.092C414.427 460.171 414.01 452.681 416.148 446.593L398.048 410.345Z" fill="#E09093"/>
<path d="M368.539 510.992H172.638L168.415 468.989L168.053 465.455C166.459 449.545 166.803 433.599 169.068 417.925C170.68 406.799 173.236 395.818 176.733 385.09C179.614 376.265 183.13 367.64 187.261 359.25L190.722 352.238L202.319 328.717L213.318 319.403L217.124 316.178L243.797 319.403L320.81 328.717L330.667 352.238L344.457 385.09L355.112 410.514C361.798 426.496 365.604 443.511 366.364 460.816L366.727 468.989L368.539 510.992Z" fill="#3A3A3A"/>
<path d="M335.921 71.429C335.921 42.3816 312.373 18.834 283.325 18.834C254.278 18.834 230.73 42.3816 230.73 71.429C230.73 89.7368 240.09 105.853 254.279 115.273C248.275 131.357 237.074 145.623 237.074 145.623L288.907 188.818L299.075 121.623C320.428 114.929 335.921 94.9895 335.921 71.429Z" fill="#E09093"/>
<path d="M215.985 139.595C215.985 139.595 159.022 137.316 149.908 203.393C140.794 269.47 90.6665 291.199 149.908 308.816C209.149 326.433 206.871 315.041 206.871 315.041L202.314 328.712H320.818L327.632 305.926C327.632 305.926 425.609 317.319 411.938 271.749C398.267 226.178 375.481 182.886 375.481 182.886C375.481 182.886 351.418 141.854 325.854 139.585C300.29 137.316 215.985 139.595 215.985 139.595Z" fill="#CBB300"/>
<path d="M210.256 297.169C201.779 263.193 193.302 229.216 184.825 195.24C180.553 178.119 176.256 160.356 179.475 143.007C182.694 125.657 195.638 108.788 213.189 106.967L212.723 105.003C222.181 95.6326 224.253 81.2184 224.531 67.9069C224.81 54.5954 223.912 40.7459 229.195 28.5245C236.316 12.05 254.036 1.6957 271.922 0.208859C272.561 0.155759 273.199 0.112589 273.838 0.0791494C299.664 -1.27349 323.241 14.8324 332.24 39.0777C335.483 47.8142 338.915 57.3144 341.359 64.7473C347.488 83.385 348.871 104.312 341.049 122.306C334.297 137.84 321.416 149.831 312.763 164.392C294.711 194.77 297.809 236.297 320.168 263.659L318.179 260.676C299.17 261.379 281.992 271.475 265.266 280.535C248.541 289.594 230.025 298.114 211.213 295.3L210.256 297.169Z" fill="#3A3A3A"/>
</g>
<defs>
<clipPath id="clip0_767_96">
<rect width="540.126" height="510.992" fill="white"/>
</clipPath>
</defs>
</svg>
